# xmcd
#
# Track frame offsets: 
#        150
#        14079
#        29450
#        44439
#        56174
#        70913
#        90993
#        103157
#        113143
#        128380
#        143393
#
# Disc length: 2081 seconds
#
# Revision: 0
# Processed by: cddbd v1.5.2PL0 Copyright (c) Steve Scherf et al.
# Submitted via: ExactAudioCopyFreeDBPlugin 1.0
#
DISCID=90081f0b
DTITLE=Vena Portae - Vena Portae
DYEAR=2014
DGENRE=Country
TTITLE0=Summer Kills
TTITLE1=Before The Winter Came
TTITLE2=Foal
TTITLE3=Solitary Wives
TTITLE4=Turning Key
TTITLE5=Transatlantic
TTITLE6=Flames And Fury
TTITLE7=Magpie's Carol
TTITLE8=Stingrays
TTITLE9=The Mapless Sea
TTITLE10=All Will Be Well
EXTD=
EXTT0=
EXTT1=
EXTT2=
EXTT3=
EXTT4=
EXTT5=
EXTT6=
EXTT7=
EXTT8=
EXTT9=
EXTT10=
PLAYORDER=
